<?xml version="1.0" standalone="no"?>
<!DOCTYPE svg PUBLIC "-//W3C//DTD SVG 20010904//EN"
 "http://www.w3.org/TR/2001/REC-SVG-20010904/DTD/svg10.dtd">
<svg version="1.0" xmlns="http://www.w3.org/2000/svg"
 width="430.000000pt" height="430.000000pt" viewBox="0 0 430.000000 430.000000"
 preserveAspectRatio="xMidYMid meet">
<metadata>
Created by potrace 1.14, written by Peter Selinger 2001-2017
</metadata>
<g transform="translate(0.000000,430.000000) scale(0.100000,-0.100000)"
fill="#000000" stroke="none">
<path d="M1879 4296 c-2 -2 -26 -7 -54 -11 -279 -37 -618 -168 -875 -341 -410
-275 -726 -707 -866 -1189 -21 -72 -18 -57 -44 -185 -28 -142 -35 -216 -35
-410 0 -212 13 -328 59 -530 53 -228 230 -594 373 -771 238 -293 469 -483 768
-629 102 -50 263 -114 315 -125 8 -2 27 -8 41 -13 40 -16 263 -60 349 -69 138
-15 529 -7 559 11 3 2 29 7 56 10 62 7 225 49 325 83 357 123 716 369 939 643
20 25 44 54 54 65 41 44 172 250 222 349 73 143 163 389 181 496 2 14 8 45 14
70 27 134 34 216 35 395 0 175 -6 265 -25 370 -6 33 -13 71 -15 85 -6 44 -45
182 -72 260 -204 588 -656 1064 -1228 1293 -100 40 -251 88 -315 101 -31 6
-115 23 -155 32 -31 8 -599 16 -606 10z"/>
</g>
</svg>
